<svg width="58" height="56" viewBox="0 0 58 56" fill="none" xmlns="http://www.w3.org/2000/svg">
<path d="M58 23.9998V55.9998H4.77002C1.38002 55.9598 0.01 54.5898 0 51.2498V23.9998L1 21.9998L10.5601 15.1997L12.12 16.4497L2.53003 23.3398L29 42.0598L55.47 23.3398L45.88 16.4497L47.4399 15.1997L57 21.9998L58 23.9998ZM56 25.4097C55.19 25.9897 54.16 26.7398 53 27.5698C46.91 31.9598 36.81 39.1897 32.04 42.4597C31.8174 42.6141 31.6037 42.781 31.4 42.9597C31.088 43.2824 30.7154 43.5403 30.3036 43.7188C29.8918 43.8972 29.4488 43.9927 29 43.9998C28.5539 44.0001 28.1125 43.9089 27.7031 43.7317C27.2937 43.5545 26.9251 43.2952 26.62 42.9697C26.436 42.8111 26.2423 42.6643 26.04 42.5298C21.33 39.2598 11.14 31.9598 5 27.5598C3.84 26.7298 2.8 25.9797 2 25.4097V50.9998C2.00208 51.3762 2.07322 51.7491 2.20996 52.0999C3.00996 51.4199 3.99999 50.5699 5.10999 49.6199C8.30999 46.8699 12.5801 43.2198 16.5601 39.7998L18.3199 41.0398L6.70996 50.9697L3.59998 53.6396C4.03032 53.872 4.51097 53.9957 5 53.9998H53C53.489 53.9957 53.9697 53.872 54.4 53.6396L51.29 50.9697L39.6801 41.0398L41.4399 39.7998C45.4199 43.2198 49.69 46.8699 52.89 49.6199C54 50.5699 54.99 51.4199 55.78 52.0999C55.9248 51.7512 55.9995 51.3773 56 50.9998V25.4097V25.4097ZM53.23 55.9998H58V51.2297C57.99 54.5797 56.63 55.9598 53.23 55.9998ZM31 28.9998C31 29.3953 30.8827 29.7819 30.663 30.1108C30.4432 30.4397 30.1308 30.696 29.7654 30.8474C29.3999 30.9988 28.9978 31.0386 28.6099 30.9614C28.2219 30.8843 27.8655 30.6938 27.5858 30.4141C27.3061 30.1344 27.1156 29.7779 27.0385 29.3899C26.9613 29.0019 27.0008 28.5998 27.1522 28.2344C27.3036 27.8689 27.56 27.5567 27.8889 27.3369C28.2178 27.1172 28.6044 26.9998 29 26.9998C29.5299 27.0013 30.0377 27.2127 30.4125 27.5874C30.7872 27.9621 30.9984 28.4698 31 28.9998ZM34.28 14.6897C30.77 18.1997 30.09 17.7898 30 21.9998C30 22.265 29.8947 22.5193 29.7072 22.7068C29.5196 22.8943 29.2652 22.9998 29 22.9998C28.7348 22.9998 28.4804 22.8943 28.2928 22.7068C28.1053 22.5193 28 22.265 28 21.9998C28.01 17.5898 29.2 16.5398 32.76 13.3198C34.3 11.8598 35.99 10.0399 36.01 7.86987C36.04 3.70987 32.59 1.96971 29.37 1.94971C25.3 1.91971 23.09 3.79985 22.3 7.09985C22.0987 7.71297 21.9973 8.35442 22 8.99976V8.99976C21.9792 9.24701 21.8673 9.47766 21.6859 9.64697C21.5045 9.81629 21.2666 9.91228 21.0186 9.91602C20.7705 9.91976 20.5299 9.83101 20.3435 9.66724C20.1571 9.50347 20.0382 9.2763 20.01 9.02979H19.99C19.9743 7.98455 20.1823 6.94801 20.6 5.98975C21.84 2.31975 24.94 0.00976562 29.49 0.00976562C34.14 0.00976562 37.99 2.89975 37.99 7.73975C37.99 10.8797 36.42 12.6797 34.28 14.6897Z" fill="black"/>
<path d="M5 27L28.9399 43L53 27V51H5V27Z" fill="black"/>
</svg>
