<svg height="682pt" viewBox="-21 -21 682.66732 682" width="682pt" xmlns="http://www.w3.org/2000/svg"><path d="m551.207031 485.898438-96.929687-63.695313c-23.070313-15.160156-53.023438-13.84375-74.535156 3.273437-18.839844 14.992188-45.882813 13.460938-62.90625-3.566406l-98.417969-98.414062c-17.019531-17.023438-18.554688-44.070313-3.5625-62.910156 17.117187-21.511719 18.429687-51.464844 3.269531-74.535157l-63.695312-96.929687c-11.136719-16.945313-28.414063-27.089844-48.648438-28.558594-20.234375-1.453125-38.785156 6.078125-52.25 21.246094-74.609375 84.011718-70.785156 212.085937 8.699219 291.566406l204.722656 204.726562c41.359375 41.359376 95.863281 62.226563 150.484375 62.226563 50.347656 0 100.789062-17.738281 141.089844-53.523437 15.164062-13.472657 22.707031-32.027344 21.238281-52.257813-1.464844-20.230469-11.605469-37.503906-28.558594-48.648437zm0 0"/><path d="m634.507812 5.828125c-3.515624-3.515625-8.28125-5.496094-13.253906-5.496094h-113.109375c-10.355469 0-18.75 8.394531-18.75 18.75 0 10.351563 8.394531 18.746094 18.75 18.746094h67.929688l-209.3125 209.855469c-7.3125 7.328125-7.292969 19.199218.035156 26.511718 3.65625 3.648438 8.449219 5.472657 13.238281 5.472657 4.804688 0 9.613282-1.835938 13.277344-5.507813l209.191406-209.734375-.003906 67.757813c0 10.355468 8.394531 18.75 18.746094 18.75h.003906c10.351562 0 18.746094-8.394532 18.746094-18.75l.003906-113.105469c0-4.964844-1.972656-9.734375-5.492188-13.25zm0 0"/></svg>