<svg id="Capa_1" enable-background="new 0 0 512 512" height="512" viewBox="0 0 512 512" width="512" xmlns="http://www.w3.org/2000/svg"><g><g><path d="m180.509 235.454h132.447c4.14 0 7.495-3.356 7.495-7.495 0-4.14-3.355-7.495-7.495-7.495h-132.447c-4.14 0-7.495 3.356-7.495 7.495s3.356 7.495 7.495 7.495z"/><path d="m320.452 265.284c0-4.139-3.355-7.495-7.495-7.495h-132.448c-4.14 0-7.495 3.356-7.495 7.495s3.356 7.495 7.495 7.495h132.447c4.14.001 7.496-3.355 7.496-7.495z"/><path d="m287.34 302.61c0-4.139-3.355-7.495-7.495-7.495h-66.223c-4.139 0-7.495 3.356-7.495 7.495 0 4.14 3.356 7.495 7.495 7.495h66.223c4.139.001 7.495-3.355 7.495-7.495z"/><path d="m503.445 190.344c-1.064-4.001-5.17-6.383-9.169-5.32-4 1.063-6.383 5.168-5.32 9.168 4.718 17.759 7.39 36.116 7.957 54.632h-100.908c-1.842-35.115-16.575-67.875-41.772-92.664-24.488-24.093-56.355-38.176-90.416-40.113v-100.911c93.064 3.104 176.299 59.537 213.455 145.396l.792 1.853c1.626 3.806 6.028 5.574 9.838 3.948 3.807-1.626 5.575-6.03 3.949-9.837l-.806-1.885c-40.502-93.584-132.498-154.24-234.428-154.596-.099-.004-.196-.015-.296-.015-68.354 0-132.646 26.588-181.033 74.865-48.292 48.184-75.018 112.259-75.279 180.455-.006.125-.009.252-.009.379l.004.346c0 .07.009.137.011.207 0 .029-.004.057-.004.086.163 67.788 26.534 131.639 74.256 179.79 47.691 48.12 111.239 75.065 178.937 75.871h.129c2.771 0 5.379-1.072 7.358-3.026 2.014-1.99 3.123-4.645 3.123-7.475v-11.594c59.587-1.94 115.326-26.047 157.685-68.406s66.462-98.097 68.402-157.684h11.597c2.829 0 5.484-1.109 7.474-3.122 1.985-2.009 3.06-4.667 3.026-7.488-.253-21.299-3.132-42.449-8.553-62.86zm-417.569-104.867c43.783-43.684 101.401-68.506 162.948-70.373v100.914c-71.353 3.778-128.853 61.152-132.787 132.497h-100.916c1.947-61.634 26.911-119.292 70.755-163.038zm167.643 295.703c-36.487-.798-70.766-17.433-94.047-45.641-2.635-3.192-7.359-3.646-10.551-1.01-3.193 2.635-3.645 7.359-1.01 10.551 25.128 30.445 61.707 48.846 100.914 50.922v100.909c-62.028-1.885-120.08-27.113-163.909-71.338-43.165-43.553-67.776-100.742-69.781-161.76h100.911c.99 17.525 5.186 34.45 12.507 50.409 1.726 3.762 6.175 5.414 9.938 3.687 3.762-1.726 5.413-6.175 3.687-9.938-7.46-16.26-11.285-33.651-11.369-51.688 0-.027-.004-.053-.004-.081.002-.059.009-.117.009-.177.158-69.044 56.458-125.215 125.503-125.217 32.906.161 63.945 12.958 87.403 36.036 23.438 23.06 36.742 53.841 37.461 86.67.123 5.775 4.731 10.299 10.49 10.299h19.292c-1.895 38.513-17.776 74.454-45.235 101.912-27.459 27.46-63.398 43.359-101.912 45.255v-19.311c-.001-5.754-4.523-10.362-10.297-10.489zm157.38 29.72c-39.526 39.527-91.503 62.066-147.085 63.999v-48.916c42.52-1.907 82.222-19.364 112.513-49.656 30.29-30.29 47.738-69.993 49.645-112.512h48.932c-1.934 55.582-24.477 107.558-64.005 147.085z"/></g></g></svg>