<svg height="512pt" viewBox="0 -31 512 512" width="512pt" xmlns="http://www.w3.org/2000/svg"><path d="m286 30c0-16.539062-13.460938-30-30-30s-30 13.460938-30 30 13.460938 30 30 30 30-13.460938 30-30zm0 0"/><path d="m482 390c-16.539062 0-30 13.460938-30 30s13.460938 30 30 30 30-13.460938 30-30-13.460938-30-30-30zm0 0"/><path d="m30 450c16.539062 0 30-13.460938 30-30s-13.460938-30-30-30-30 13.460938-30 30 13.460938 30 30 30zm0 0"/><path d="m241 285c0 8.277344 6.722656 15 15 15s15-6.722656 15-15-6.722656-15-15-15-15 6.722656-15 15zm0 0"/><path d="m460.535156 364.140625-168.234375-286.691406c-6.253906 4.800781-13.5 8.273437-21.300781 10.371093v154.941407c17.421875 6.214843 30 22.707031 30 42.238281 0 2.511719-.34375 4.929688-.742188 7.328125l145.796876 80.027344c4.425781-3.324219 9.230468-6.191407 14.480468-8.214844zm0 0"/><path d="m65.945312 372.355469 145.796876-80.027344c-.398438-2.398437-.742188-4.816406-.742188-7.328125 0-19.53125 12.578125-36.023438 30-42.238281v-154.941407c-7.800781-2.097656-15.046875-5.570312-21.300781-10.371093l-168.234375 286.691406c5.25 2.023437 10.054687 4.890625 14.480468 8.214844zm0 0"/><path d="m422 420c0-8.511719 2.3125-16.296875 5.53125-23.617188l-141.835938-77.835937c-7.945312 7.039063-18.269531 11.453125-29.695312 11.453125s-21.75-4.414062-29.695312-11.453125l-141.835938 77.835937c3.21875 7.320313 5.53125 15.105469 5.53125 23.617188zm0 0"/></svg>