<svg id="Layer_1" height="512" viewBox="0 0 512 512" width="512" xmlns="http://www.w3.org/2000/svg" data-name="Layer 1"><path d="m364.606 11h-318.606a5.949 5.949 0 0 0 -6 5.939v394.122a9.959 9.959 0 0 0 10 9.939h310.606c5.514 0 10.394-4.425 10.394-9.939v-394.122c0-3.313-3.081-5.939-6.394-5.939zm-5.606 398h-64.757l64.757-64.3zm-73-8.425v-49.151a15.207 15.207 0 0 1 14.97-15.424h49.151zm73-319.575h-230a6 6 0 0 0 0 12h230v231h-58.03c-15.005 0-26.97 12.419-26.97 27.424v57.576h-222v-316h43a6 6 0 0 0 0-12h-43v-58h307z"/><path d="m87.1 70.372a17.978 17.978 0 1 0 -17.974-17.978 18 18 0 0 0 17.974 17.978zm0-23.955a5.978 5.978 0 1 1 -5.978 5.977 5.984 5.984 0 0 1 5.978-5.977z"/><path d="m134.384 70.372a17.978 17.978 0 1 0 -17.978-17.978 18 18 0 0 0 17.978 17.978zm0-23.955a5.978 5.978 0 1 1 -5.978 5.977 5.983 5.983 0 0 1 5.978-5.977z"/><path d="m181.663 70.372a17.978 17.978 0 1 0 -17.977-17.978 18 18 0 0 0 17.977 17.978zm0-23.955a5.978 5.978 0 1 1 -5.977 5.977 5.984 5.984 0 0 1 5.977-5.977z"/><path d="m228.943 70.372a17.978 17.978 0 1 0 -17.978-17.978 18 18 0 0 0 17.978 17.978zm0-23.955a5.978 5.978 0 1 1 -5.978 5.977 5.983 5.983 0 0 1 5.978-5.977z"/><path d="m276.222 70.372a17.978 17.978 0 1 0 -17.977-17.978 18 18 0 0 0 17.977 17.978zm0-23.955a5.978 5.978 0 1 1 -5.977 5.977 5.984 5.984 0 0 1 5.977-5.977z"/><path d="m323.5 70.372a17.978 17.978 0 1 0 -17.978-17.978 18 18 0 0 0 17.978 17.978zm0-23.955a5.978 5.978 0 1 1 -5.978 5.977 5.983 5.983 0 0 1 5.978-5.977z"/><path d="m111.367 216h-2.324a6 6 0 0 0 0 12h2.324a6 6 0 1 0 0-12z"/><path d="m134.56 228h17.56a6 6 0 0 0 0-12h-17.56a6 6 0 0 0 0 12z"/><path d="m175.688 228h125.875a6 6 0 0 0 0-12h-125.875a6 6 0 0 0 0 12z"/><path d="m103.043 172a6 6 0 0 0 6 6h2.324a6 6 0 1 0 0-12h-2.324a6 6 0 0 0 -6 6z"/><path d="m134.56 178h17.56a6 6 0 0 0 0-12h-17.56a6 6 0 0 0 0 12z"/><path d="m175.688 178h125.875a6 6 0 0 0 0-12h-125.875a6 6 0 0 0 0 12z"/><path d="m111.367 275h-2.324a6 6 0 0 0 0 12h2.324a6 6 0 1 0 0-12z"/><path d="m134.56 287h17.56a6 6 0 0 0 0-12h-17.56a6 6 0 0 0 0 12z"/><path d="m175.688 287h67.9a6 6 0 1 0 0-12h-67.9a6 6 0 0 0 0 12z"/><path d="m78 108.14a6 6 0 0 0 -6 6v3.409a6 6 0 0 0 12 0v-3.409a6 6 0 0 0 -6-6z"/><path d="m78 130.549a6 6 0 0 0 -6 6v103.468a6 6 0 0 0 12 0v-103.468a6 6 0 0 0 -6-6z"/><path d="m453.556 177h-3.556v-17.4c0-16.231-12.622-30.012-28.841-30.63a30.011 30.011 0 0 0 -31.159 29.812v278.664a5.53 5.53 0 0 0 .525 2.346l23.812 57.562a6 6 0 0 0 11.089 0l23.349-56.443a5.522 5.522 0 0 0 1.225-3.465v-47.446a6 6 0 0 0 -12 0v41h-36v-191h36v116a6 6 0 0 0 12 0v-167h3.556a6.729 6.729 0 0 1 6.444 6.76v80.088a6 6 0 0 0 12 0v-80.088a18.738 18.738 0 0 0 -18.444-18.76zm-18.632 266-15.043 36.364-15.042-36.364zm3.076-215h-36v-16h36zm0-28h-36v-40.631a18.283 18.283 0 0 1 16.04-18.315 18 18 0 0 1 19.96 17.728z"/></svg>