<?xml version="1.0" encoding="iso-8859-1"?>
<!-- Generator: Adobe Illustrator 19.0.0, SVG Export Plug-In . SVG Version: 6.00 Build 0)  -->
<svg xmlns="http://www.w3.org/2000/svg" xmlns:xlink="http://www.w3.org/1999/xlink" version="1.1" id="Capa_1" x="0px" y="0px" viewBox="0 0 513.75 513.75" style="enable-background:new 0 0 513.75 513.75;" xml:space="preserve" width="512" height="512">
<g>
	<path d="M43.125,513.75h232.5v-360h-232.5V513.75z M58.125,168.75h202.5v330h-202.5V168.75z"/>
	<path d="M73.125,288.75h172.5v-105h-172.5V288.75z M88.125,198.75h142.5v75h-142.5V198.75z"/>
	<rect x="91.875" y="311.25" width="15" height="15"/>
	<rect x="121.875" y="311.25" width="15" height="15"/>
	<rect x="121.875" y="341.25" width="15" height="15"/>
	<rect x="151.875" y="341.25" width="15" height="15"/>
	<rect x="91.875" y="341.25" width="15" height="15"/>
	<rect x="151.875" y="311.25" width="15" height="15"/>
	<rect x="181.875" y="311.25" width="15" height="15"/>
	<rect x="181.875" y="341.25" width="15" height="15"/>
	<rect x="211.875" y="341.25" width="15" height="15"/>
	<rect x="211.875" y="311.25" width="15" height="15"/>
	<rect x="73.125" y="378.75" width="15" height="15"/>
	<rect x="103.125" y="378.75" width="15" height="15"/>
	<rect x="133.125" y="378.75" width="15" height="15"/>
	<rect x="73.125" y="408.75" width="15" height="15"/>
	<rect x="103.125" y="408.75" width="15" height="15"/>
	<rect x="133.125" y="408.75" width="15" height="15"/>
	<rect x="73.125" y="438.75" width="15" height="15"/>
	<rect x="103.125" y="438.75" width="15" height="15"/>
	<rect x="133.125" y="438.75" width="15" height="15"/>
	<rect x="73.125" y="468.75" width="15" height="15"/>
	<rect x="103.125" y="468.75" width="15" height="15"/>
	<rect x="133.125" y="468.75" width="15" height="15"/>
	<path d="M163.125,483.75h82.5v-45h-82.5V483.75z M178.125,453.75h52.5v15h-52.5V453.75z"/>
	<rect x="211.875" y="378.75" width="33.75" height="15"/>
	<rect x="163.125" y="378.75" width="33.75" height="15"/>
	<rect x="211.875" y="408.75" width="33.75" height="15"/>
	<rect x="163.125" y="408.75" width="33.75" height="15"/>
	<rect x="103.125" y="243.75" width="112.5" height="15"/>
	<rect x="200.625" y="213.75" width="15" height="15"/>
	<polygon points="163.125,0 163.125,138.75 178.125,138.75 178.125,15 455.625,15 455.625,416.25 290.625,416.25 290.625,431.25    470.625,431.25 470.625,0  "/>
	<rect x="208.125" y="45" width="60" height="15"/>
	<rect x="208.125" y="93.75" width="105" height="15"/>
	<rect x="328.125" y="93.75" width="97.5" height="15"/>
	<rect x="208.125" y="123.75" width="52.5" height="15"/>
	<rect x="275.625" y="123.75" width="82.5" height="15"/>
	<rect x="290.625" y="153.75" width="30" height="15"/>
	<rect x="290.625" y="183.75" width="135" height="15"/>
	<rect x="290.625" y="213.75" width="135" height="15"/>
	<rect x="290.625" y="243.75" width="135" height="15"/>
	<rect x="290.625" y="273.75" width="135" height="15"/>
	<rect x="410.625" y="371.25" width="15" height="15"/>
	<rect x="380.625" y="371.25" width="15" height="15"/>
	<rect x="350.625" y="371.25" width="15" height="15"/>
</g>















</svg>
