<?xml version="1.0" encoding="iso-8859-1"?>
<!-- Generator: Adobe Illustrator 19.0.0, SVG Export Plug-In . SVG Version: 6.00 Build 0)  -->
<svg version="1.1" id="Capa_1" xmlns="http://www.w3.org/2000/svg" xmlns:xlink="http://www.w3.org/1999/xlink" x="0px" y="0px"
	 viewBox="0 0 375.2 375.2" style="enable-background:new 0 0 375.2 375.2;" xml:space="preserve">
<g>
	<g>
		<g>
			<path d="M203.2,300.8c-15.6-15.6-25.6-37.6-25.6-61.6c0-18.4-7.6-35.2-19.6-47.2s-28.8-19.6-47.2-19.6
				c-18.4,0-35.6,7.2-47.6,19.2c-11.2,11.2-18.8,26.8-19.6,44c1.2,38,17.2,72,42,97.2c26.4,26,62.4,42.4,102.4,42.4s76-16,102-42.4
				c4.8-4.8,9.2-10,13.2-15.2c-11.6,5.6-24.8,8.8-38.4,8.8C240.8,326.4,218.8,316.8,203.2,300.8z"/>
			<path d="M210.8,27.6c-8.4-10-16.4-19.2-23.6-27.6C180,8.8,172,18,163.6,27.6c-34.8,40-78.4,90.8-102.4,138.8
				c14-9.6,30.8-14.8,48.8-14.8c24.8,0,46.4,10,62.4,25.6c15.6,15.6,25.6,37.6,25.6,61.6c0,18.4,7.6,35.2,19.6,47.2
				s28.8,19.6,47.2,19.6c18.4,0,35.2-7.6,47.2-19.6c9.2-9.2,16-21.2,18.4-34.4c0.4-3.6,0.8-7.6,1.2-11.2c0-0.4,0-0.8,0-1.6
				s0-1.2,0-2c0-2,0-4.4,0-6.4C331.6,167.2,261.6,86.4,210.8,27.6z"/>
		</g>
	</g>
</g>
<g>
</g>
<g>
</g>
<g>
</g>
<g>
</g>
<g>
</g>
<g>
</g>
<g>
</g>
<g>
</g>
<g>
</g>
<g>
</g>
<g>
</g>
<g>
</g>
<g>
</g>
<g>
</g>
<g>
</g>
</svg>
