<svg id="Capa_1" enable-background="new 0 0 512 512" height="512" viewBox="0 0 512 512" width="512" xmlns="http://www.w3.org/2000/svg"><g><path d="m417.046 172.86-25.288-10.115v-107.148c0-8.556-6.961-15.516-15.517-15.516h-15.511c-7.642 0-14.903 3.849-19.424 10.295-34.191 48.768-90.17 77.882-149.744 77.882h-160.014c-17.396 0-31.548 14.153-31.548 31.549v96.193c0 17.396 14.152 31.548 31.548 31.548h34.749l58.633 168.569c3.287 9.452 12.219 15.802 22.227 15.802h41.456c5.013 0 9.74-2.439 12.646-6.525 2.905-4.086 3.656-9.353 2.009-14.089l-56.959-163.757h45.255c59.574 0 115.553 29.115 149.744 77.882 4.52 6.447 11.781 10.295 19.423 10.295h15.511c8.556 0 15.517-6.96 15.517-15.516v-16.032c0-4.142-3.358-7.5-7.5-7.5s-7.5 3.358-7.5 7.5v16.032c0 .285-.232.516-.517.516h-15.512c-2.757 0-5.426-1.46-7.142-3.907-36.996-52.768-97.566-84.271-162.026-84.271h-24.256v-80.677c0-4.142-3.358-7.5-7.5-7.5s-7.5 3.358-7.5 7.5v80.677h-120.758c-9.125.001-16.548-7.422-16.548-16.547v-96.193c0-9.125 7.423-16.548 16.548-16.548h120.758v16.549c0 4.142 3.358 7.5 7.5 7.5s7.5-3.358 7.5-7.5v-16.549h24.256c64.459 0 125.03-31.503 162.025-84.271 1.716-2.446 4.385-3.907 7.142-3.907h15.511c.285 0 .517.231.517.516v256.516c0 4.142 3.358 7.5 7.5 7.5s7.5-3.358 7.5-7.5v-59.051l25.288-10.115c8.986-3.594 14.793-12.171 14.793-21.85v-26.388c.001-9.678-5.806-18.255-14.792-21.849zm-227.947 283.373c.028.082.088.252-.067.469-.154.217-.334.217-.42.217h-41.456c-3.628 0-6.867-2.302-8.059-5.729l-56.918-163.642h48.248zm227.74-235.136c0 3.509-2.105 6.619-5.364 7.922l-19.717 7.887v-58.006l19.717 7.887c3.258 1.303 5.363 4.412 5.363 7.921v26.389z"/><path d="m504.5 200.403h-48.097c-4.142 0-7.5 3.358-7.5 7.5s3.358 7.5 7.5 7.5h48.097c4.142 0 7.5-3.358 7.5-7.5s-3.358-7.5-7.5-7.5z"/><path d="m448.394 175.324c1.43 0 2.875-.408 4.153-1.261l24.048-16.032c3.447-2.297 4.378-6.954 2.08-10.4-2.298-3.447-6.954-4.378-10.4-2.08l-24.048 16.032c-3.447 2.297-4.378 6.954-2.08 10.4 1.445 2.168 3.823 3.341 6.247 3.341z"/><path d="m476.596 257.776-24.048-16.032c-3.446-2.298-8.103-1.367-10.4 2.08-2.298 3.446-1.367 8.103 2.08 10.4l24.048 16.032c1.279.853 2.724 1.261 4.153 1.261 2.423 0 4.802-1.173 6.247-3.341 2.298-3.446 1.366-8.103-2.08-10.4z"/><path d="m55.597 168.339h-16.033c-4.142 0-7.5 3.358-7.5 7.5s3.358 7.5 7.5 7.5h16.032c4.142 0 7.5-3.358 7.5-7.5s-3.357-7.5-7.499-7.5z"/><path d="m55.597 232.468h-16.033c-4.142 0-7.5 3.358-7.5 7.5s3.358 7.5 7.5 7.5h16.032c4.142 0 7.5-3.358 7.5-7.5s-3.357-7.5-7.499-7.5z"/><path d="m55.597 200.403h-16.033c-4.142 0-7.5 3.358-7.5 7.5s3.358 7.5 7.5 7.5h16.032c4.142 0 7.5-3.358 7.5-7.5s-3.357-7.5-7.499-7.5z"/></g></svg>