<svg height="512pt" viewBox="-13 0 512 512.00401" width="512pt" xmlns="http://www.w3.org/2000/svg"><path d="m243.238281 160.460938c4.152344 0 7.519531-3.367188 7.519531-7.519532v-7.824218c0-4.15625-3.367187-7.519532-7.519531-7.519532-4.152343 0-7.519531 3.363282-7.519531 7.519532v7.824218c0 4.152344 3.367188 7.519532 7.519531 7.519532zm0 0"/><path d="m235.71875 359.058594v7.828125c0 4.152343 3.367188 7.515625 7.519531 7.515625 4.152344 0 7.519531-3.363282 7.519531-7.515625v-7.828125c0-4.152344-3.367187-7.519532-7.519531-7.519532-4.152343 0-7.519531 3.367188-7.519531 7.519532zm0 0"/><path d="m198.21875 162.988281-3.914062-6.777343c-2.074219-3.59375-6.671876-4.828126-10.269532-2.75-3.59375 2.074218-4.828125 6.671874-2.75 10.269531l3.910156 6.777343c1.394532 2.410157 3.921876 3.761719 6.519532 3.761719 1.277344 0 2.570312-.328125 3.753906-1.011719 3.59375-2.074218 4.828125-6.671874 2.75-10.269531zm0 0"/><path d="m292.167969 355.789062c1.394531 2.410157 3.921875 3.761719 6.519531 3.761719 1.273438 0 2.566406-.328125 3.753906-1.011719 3.59375-2.074218 4.828125-6.671874 2.75-10.269531l-3.914062-6.777343c-2.074219-3.597657-6.671875-4.824219-10.269532-2.75-3.597656 2.074218-4.828124 6.671874-2.75 10.269531zm0 0"/><path d="m157.746094 197.960938-6.777344-3.914063c-3.597656-2.074219-8.195312-.847656-10.273438 2.75-2.074218 3.597656-.84375 8.195313 2.753907 10.273437l6.777343 3.910157c1.183594.683593 2.476563 1.007812 3.753907 1.007812 2.59375 0 5.125-1.347656 6.515625-3.757812 2.078125-3.597657.84375-8.195313-2.75-10.269531zm0 0"/><path d="m328.730469 314.042969 6.777343 3.910156c1.183594.683594 2.476563 1.007813 3.75 1.007813 2.597657 0 5.125-1.347657 6.519532-3.757813 2.074218-3.597656.84375-8.195313-2.753906-10.273437l-6.773438-3.910157c-3.597656-2.074219-8.195312-.84375-10.269531 2.75-2.078125 3.597657-.847657 8.195313 2.75 10.273438zm0 0"/><path d="m147.695312 256c0-4.152344-3.363281-7.519531-7.515624-7.519531h-7.828126c-4.152343 0-7.519531 3.367187-7.519531 7.519531s3.367188 7.519531 7.519531 7.519531h7.828126c4.152343 0 7.515624-3.367187 7.515624-7.519531zm0 0"/><path d="m338.777344 256c0 4.152344 3.367187 7.519531 7.519531 7.519531h7.828125c4.152344 0 7.515625-3.367187 7.515625-7.519531s-3.363281-7.519531-7.515625-7.519531h-7.828125c-4.152344 0-7.519531 3.367187-7.519531 7.519531zm0 0"/><path d="m147.214844 318.960938c1.277344 0 2.570312-.324219 3.753906-1.007813l6.777344-3.910156c3.59375-2.078125 4.828125-6.675781 2.75-10.273438-2.074219-3.59375-6.675782-4.824219-10.269532-2.75l-6.777343 3.910157c-3.59375 2.078124-4.828125 6.675781-2.753907 10.273437 1.394532 2.410156 3.921876 3.757813 6.519532 3.757813zm0 0"/><path d="m335.507812 194.046875-6.777343 3.914063c-3.597657 2.074218-4.828125 6.675781-2.75 10.269531 1.390625 2.410156 3.917969 3.757812 6.515625 3.757812 1.277344 0 2.570312-.324219 3.753906-1.007812l6.777344-3.910157c3.59375-2.078124 4.828125-6.675781 2.75-10.273437-2.078125-3.59375-6.675782-4.828125-10.269532-2.75zm0 0"/><path d="m195.46875 338.742188c-3.597656-2.074219-8.195312-.847657-10.273438 2.75l-3.910156 6.777343c-2.078125 3.597657-.84375 8.195313 2.75 10.273438 1.183594.683593 2.476563 1.007812 3.753906 1.007812 2.597657 0 5.125-1.347656 6.515626-3.761719l3.914062-6.777343c2.078125-3.59375.84375-8.195313-2.75-10.269531zm0 0"/><path d="m302.441406 153.460938c-3.597656-2.078126-8.195312-.847657-10.273437 2.75l-3.910157 6.777343c-2.078124 3.597657-.847656 8.195313 2.75 10.269531 1.183594.683594 2.476563 1.011719 3.753907 1.011719 2.597656 0 5.125-1.351562 6.515625-3.761719l3.914062-6.777343c2.078125-3.597657.84375-8.195313-2.75-10.269531zm0 0"/><path d="m485.382812 330.441406c-1.984374-6.679687-6.449218-12.183594-12.578124-15.503906l-26.992188-14.628906c-4.128906-2.238282-6.382812-6.894532-5.605469-11.59375 1.773438-10.75 2.675781-21.757813 2.675781-32.714844s-.902343-21.964844-2.675781-32.71875c-.777343-4.695312 1.476563-9.355469 5.605469-11.59375l26.996094-14.625c12.640625-6.855469 17.355468-22.714844 10.503906-35.359375l-29.996094-55.351563c-3.316406-6.125-8.824218-10.589843-15.503906-12.574218-6.675781-1.984375-13.726562-1.25-19.851562 2.070312l-27.019532 14.640625c-4.132812 2.238281-9.246094 1.601563-12.726562-1.589843-20.328125-18.664063-43.808594-32.671876-69.777344-41.640626-4.570312-1.578124-7.640625-5.800781-7.640625-10.507812v-30.667969c0-14.382812-11.699219-26.082031-26.082031-26.082031h-62.953125c-14.382813 0-26.082031 11.699219-26.082031 26.082031v30.671875c0 4.707032-3.070313 8.929688-7.640626 10.507813-12.800781 4.417969-25.207031 10.183593-36.867187 17.132812-3.570313 2.125-4.734375 6.738281-2.609375 10.308594 2.121094 3.566406 6.738281 4.734375 10.304688 2.609375 10.78125-6.421875 22.25-11.753906 34.082031-15.839844 10.628906-3.667968 17.765625-13.601562 17.765625-24.71875v-30.671875c0-6.089843 4.957031-11.042969 11.046875-11.042969h62.953125c6.089844 0 11.042968 4.953126 11.042968 11.042969v30.671875c0 11.117188 7.140626 21.050782 17.769532 24.722656 24.011718 8.289063 45.71875 21.242188 64.519531 38.503907 8.203125 7.53125 20.285156 9.03125 30.058594 3.734375l27.019531-14.640625c2.59375-1.40625 5.578125-1.71875 8.40625-.878907 2.828125.839844 5.160156 2.734376 6.566406 5.324219l29.992188 55.351563c2.902344 5.355468.90625 12.070312-4.449219 14.972656l-26.992187 14.628906c-9.761719 5.289063-15.097657 16.246094-13.277344 27.261719 1.640625 9.945313 2.476562 20.128906 2.476562 30.265625 0 10.140625-.835937 20.324219-2.476562 30.265625-1.820313 11.019531 3.515625 21.976563 13.277344 27.265625l26.992187 14.628906c2.59375 1.40625 4.488281 3.738282 5.328125 6.5625.839844 2.828125.527344 5.816406-.878906 8.410156l-29.992188 55.347657c-1.40625 2.59375-3.738281 4.484375-6.566406 5.328125-2.828125.835937-5.8125.527344-8.40625-.878906l-27.019531-14.640626c-9.773438-5.296874-21.855469-3.796874-30.058594 3.734376-18.800781 17.261718-40.507813 30.214843-64.519531 38.503906-10.628906 3.671875-17.769532 13.605468-17.769532 24.71875v30.675781c0 6.089844-4.953124 11.042969-11.042968 11.042969h-62.953125c-6.089844 0-11.046875-4.953125-11.046875-11.042969v-30.675781c0-11.113282-7.140625-21.046875-17.765625-24.71875-24.011719-8.289063-45.71875-21.242188-64.519531-38.503906-8.203126-7.53125-20.28125-9.03125-30.058594-3.734376l-27.019532 14.640626c-2.59375 1.40625-5.578124 1.714843-8.40625.878906-2.828124-.84375-5.160156-2.734375-6.566406-5.328125l-29.992187-55.347657c-1.40625-2.59375-1.71875-5.578124-.878907-8.40625.839844-2.828124 2.734376-5.160156 5.324219-6.566406l26.996094-14.628906c9.761719-5.289062 15.097656-16.246094 13.28125-27.265625-1.644531-9.941406-2.476563-20.125-2.476563-30.265625 0-10.136719.832032-20.320312 2.476563-30.265625 1.816406-11.015625-3.515625-21.972656-13.28125-27.261719l-26.992187-14.628906c-5.355469-2.902344-7.351563-9.617188-4.449219-14.972656l29.996093-55.351563c1.402344-2.589843 3.734376-4.484375 6.5625-5.324219 2.828126-.839843 5.8125-.527343 8.40625.878907l27.019532 14.640625c9.777344 5.296875 21.855468 3.792968 30.058594-3.734375 1.300781-1.191407 2.632812-2.382813 3.957031-3.53125 3.140625-2.71875 3.480469-7.46875.761719-10.605469-2.71875-3.140625-7.46875-3.480469-10.605469-.761719-1.4375 1.246094-2.878907 2.53125-4.28125 3.820313-3.476563 3.195312-8.59375 3.832031-12.726563 1.59375l-27.019531-14.644532c-6.125-3.320312-13.175781-4.054687-19.855469-2.070312-6.675781 1.984375-12.183594 6.449219-15.503906 12.574219l-29.992188 55.351562c-6.851562 12.640625-2.140624 28.503907 10.503907 35.355469l26.996093 14.628906c4.128907 2.238282 6.382813 6.894532 5.605469 11.59375-1.773437 10.753906-2.675781 21.757813-2.675781 32.714844 0 10.960938.898438 21.96875 2.675781 32.71875.777344 4.695312-1.476562 9.355469-5.605469 11.59375l-26.996093 14.628906c-6.125 3.316406-10.589844 8.824219-12.574219 15.5-1.984375 6.679688-1.25 13.730469 2.070312 19.855469l29.996094 55.351563c3.316406 6.125 8.824219 10.589843 15.5 12.574218 6.679688 1.984375 13.730469 1.25 19.855469-2.070312l27.019531-14.640625c4.132813-2.238281 9.25-1.601563 12.726563 1.59375 20.332031 18.660156 43.808593 32.671875 69.78125 41.636719 4.566406 1.578124 7.636719 5.800781 7.636719 10.507812v30.671875c0 14.382813 11.699218 26.082031 26.082031 26.082031h62.953125c14.382812 0 26.082031-11.699218 26.082031-26.082031v-30.671875c0-4.707031 3.070313-8.929688 7.636719-10.507812 25.972656-8.964844 49.449218-22.976563 69.78125-41.636719 3.476562-3.195313 8.589844-3.832031 12.722656-1.59375l27.023438 14.640625c6.125 3.320312 13.175781 4.054687 19.851562 2.070312 6.679688-1.984375 12.183594-6.449218 15.503906-12.574218l29.992188-55.351563c3.320312-6.125 4.058594-13.179687 2.074218-19.855469zm0 0"/><path d="m347.851562 349.566406c3.238282 2.605469 7.972657 2.085938 10.570313-1.152344 20.949219-26.078124 32.484375-58.898437 32.484375-92.414062 0-81.425781-66.242188-147.671875-147.667969-147.671875s-147.671875 66.246094-147.671875 147.671875 66.246094 147.667969 147.671875 147.667969c32.042969 0 62.527344-10.089844 88.148438-29.183594 3.332031-2.480469 4.019531-7.191406 1.539062-10.523437-2.480469-3.328126-7.191406-4.015626-10.523437-1.535157-23.007813 17.144531-50.382813 26.207031-79.164063 26.207031-73.132812 0-132.632812-59.5-132.632812-132.632812s59.5-132.632812 132.632812-132.632812c73.132813 0 132.632813 59.5 132.632813 132.632812 0 30.539062-10.089844 59.242188-29.171875 82.996094-2.601563 3.238281-2.085938 7.972656 1.152343 10.570312zm0 0"/><path d="m271.082031 263.519531h23.683594c4.152344 0 7.519531-3.367187 7.519531-7.519531s-3.367187-7.519531-7.519531-7.519531h-23.683594c-2.667969-9.871094-10.453125-17.65625-20.324219-20.324219v-53.15625c0-4.152344-3.367187-7.519531-7.519531-7.519531-4.152343 0-7.519531 3.367187-7.519531 7.519531v53.15625c-12.269531 3.316406-21.328125 14.539062-21.328125 27.84375 0 15.90625 12.941406 28.84375 28.847656 28.84375 13.304688.003906 24.527344-9.054688 27.84375-21.324219zm-27.84375 6.289063c-7.613281 0-13.808593-6.195313-13.808593-13.808594s6.195312-13.804688 13.808593-13.804688 13.804688 6.191407 13.804688 13.804688-6.191407 13.808594-13.804688 13.808594zm0 0"/></svg>