<svg id="Layer_35" enable-background="new 0 0 64 64" height="512" viewBox="0 0 64 64" width="512" xmlns="http://www.w3.org/2000/svg"><path d="m50 45h-10.271c3.809-2.111 6.655-5.733 7.757-10.049 2.526-.249 4.514-2.361 4.514-4.951 0-2.414-1.721-4.434-4-4.899v-2.101h4c.553 0 1-.447 1-1v-4c0-.553-.447-1-1-1h-1.051c-.522-8.908-7.913-16-16.949-16h-4c-9.036 0-16.427 7.092-16.949 16h-1.051c-.553 0-1 .447-1 1v4c0 .553.447 1 1 1h4v2.101c-2.279.465-4 2.484-4 4.899 0 2.59 1.988 4.702 4.514 4.951 1.102 4.316 3.949 7.938 7.757 10.049h-10.271c-3.859 0-7 3.141-7 7v10c0 .553.447 1 1 1h48c.553 0 1-.447 1-1v-10c0-3.859-3.141-7-7-7zm0 16h-36v-4h36zm-24.92-14c.488 3.386 3.401 6 6.92 6s6.432-2.614 6.92-6h3.08v8h-20v-8zm11.819 0c-.465 2.279-2.484 4-4.899 4s-4.434-1.721-4.899-4zm-16.899 8h-2v-8h2zm24 0v-8h2v8zm6-25c0 1.345-.895 2.472-2.116 2.852.07-.609.116-1.225.116-1.852v-3.816c1.161.414 2 1.514 2 2.816zm-3.953-20.9-3.92 2.613-.84-.84 2.693-4.04c.764.683 1.456 1.442 2.067 2.267zm-12.047-6.1c.261 0 .515.026.773.039l-1.592 7.961h-2.361l-1.592-7.961c.257-.013.511-.039.772-.039zm-13.345 3.286 3.057 4.587-.84.84-4.587-3.057c.701-.876 1.495-1.67 2.37-2.37zm-3.505 4.016 5.295 3.53c.169.113.363.168.555.168.258 0 .514-.1.707-.293l2-2c.337-.337.39-.865.125-1.262l-3.53-5.295c1.497-.9 3.157-1.551 4.932-1.883l1.786 8.93c.093.466.503.803.98.803h4c.477 0 .887-.337.98-.804l1.786-8.93c2.057.386 3.971 1.184 5.642 2.319l-3.24 4.86c-.265.396-.212.925.125 1.262l2 2c.193.193.449.293.707.293.192 0 .386-.055.555-.168l4.584-3.056c1.031 1.868 1.662 3.98 1.811 6.224h-33.899c.162-2.439.906-4.714 2.099-6.698zm-4.15 8.698h38v2h-38zm1 11c0-1.302.839-2.402 2-2.816v3.816c0 .627.046 1.243.116 1.852-1.221-.38-2.116-1.507-2.116-2.852zm4 1v-8h28v8c0 7.72-6.28 14-14 14s-14-6.28-14-14zm-9 21c0-2.757 2.243-5 5-5h2v8h-3c-.553 0-1 .447-1 1v5h-3zm46 9h-3v-5c0-.553-.447-1-1-1h-3v-8h2c2.757 0 5 2.243 5 5z"/></svg>